<svg width="24" height="24" viewBox="0 0 24 24" fill="none" xmlns="http://www.w3.org/2000/svg">
<g clip-path="url(#clip0_1_853)">
<path d="M14.0001 6.99999V0.459992C14.9252 0.809328 15.7654 1.3513 16.4651 2.04999L19.9491 5.53599C20.6486 6.23487 21.191 7.07489 21.5401 7.99999H15.0001C14.7349 7.99999 14.4806 7.89464 14.293 7.7071C14.1055 7.51956 14.0001 7.26521 14.0001 6.99999ZM22.0001 10.485V19C21.9985 20.3256 21.4712 21.5964 20.5339 22.5338C19.5966 23.4711 18.3257 23.9984 17.0001 24H7.00012C5.67453 23.9984 4.40368 23.4711 3.46634 22.5338C2.529 21.5964 2.00171 20.3256 2.00012 19V4.99999C2.00171 3.6744 2.529 2.40355 3.46634 1.46621C4.40368 0.528874 5.67453 0.00158023 7.00012 -7.62939e-06L11.5151 -7.62939e-06C11.6781 -7.62939e-06 11.8391 0.0129924 12.0001 0.0239924V6.99999C12.0001 7.79564 12.3162 8.5587 12.8788 9.12131C13.4414 9.68392 14.2045 9.99999 15.0001 9.99999H21.9761C21.9871 10.161 22.0001 10.322 22.0001 10.485ZM14.0001 19C14.0001 18.7348 13.8948 18.4804 13.7072 18.2929C13.5197 18.1053 13.2653 18 13.0001 18H8.00012C7.73491 18 7.48055 18.1053 7.29302 18.2929C7.10548 18.4804 7.00012 18.7348 7.00012 19C7.00012 19.2652 7.10548 19.5196 7.29302 19.7071C7.48055 19.8946 7.73491 20 8.00012 20H13.0001C13.2653 20 13.5197 19.8946 13.7072 19.7071C13.8948 19.5196 14.0001 19.2652 14.0001 19ZM17.0001 15C17.0001 14.7348 16.8948 14.4804 16.7072 14.2929C16.5197 14.1053 16.2653 14 16.0001 14H8.00012C7.73491 14 7.48055 14.1053 7.29302 14.2929C7.10548 14.4804 7.00012 14.7348 7.00012 15C7.00012 15.2652 7.10548 15.5196 7.29302 15.7071C7.48055 15.8946 7.73491 16 8.00012 16H16.0001C16.2653 16 16.5197 15.8946 16.7072 15.7071C16.8948 15.5196 17.0001 15.2652 17.0001 15Z" fill="currentColor"/>
</g>
<defs>
<clipPath id="clip0_1_853">
<rect width="24" height="24" fill="white"/>
</clipPath>
</defs>
</svg>
