<svg width="22" height="22" viewBox="0 0 22 22" fill="none" xmlns="http://www.w3.org/2000/svg">
<path fill-rule="evenodd" clip-rule="evenodd" d="M5.79998 0.599998C5.45519 0.599998 5.12453 0.736962 4.88074 0.98076C4.63694 1.22456 4.49998 1.55522 4.49998 1.9V3.2H3.19998C2.51041 3.2 1.84909 3.47393 1.3615 3.96152C0.873903 4.44912 0.599976 5.11044 0.599976 5.8V18.8C0.599976 19.4896 0.873903 20.1509 1.3615 20.6385C1.84909 21.1261 2.51041 21.4 3.19998 21.4H18.8C19.4895 21.4 20.1509 21.1261 20.6385 20.6385C21.126 20.1509 21.4 19.4896 21.4 18.8V5.8C21.4 5.11044 21.126 4.44912 20.6385 3.96152C20.1509 3.47393 19.4895 3.2 18.8 3.2H17.5V1.9C17.5 1.55522 17.363 1.22456 17.1192 0.98076C16.8754 0.736962 16.5448 0.599998 16.2 0.599998C15.8552 0.599998 15.5245 0.736962 15.2807 0.98076C15.0369 1.22456 14.9 1.55522 14.9 1.9V3.2H7.09998V1.9C7.09998 1.55522 6.96301 1.22456 6.71921 0.98076C6.47542 0.736962 6.14476 0.599998 5.79998 0.599998ZM5.79998 7.1C5.45519 7.1 5.12453 7.23696 4.88074 7.48076C4.63694 7.72456 4.49998 8.05522 4.49998 8.4C4.49998 8.74478 4.63694 9.07544 4.88074 9.31924C5.12453 9.56303 5.45519 9.7 5.79998 9.7H16.2C16.5448 9.7 16.8754 9.56303 17.1192 9.31924C17.363 9.07544 17.5 8.74478 17.5 8.4C17.5 8.05522 17.363 7.72456 17.1192 7.48076C16.8754 7.23696 16.5448 7.1 16.2 7.1H5.79998Z" fill="currentColor"/>
</svg>
