<?xml version="1.0" encoding="UTF-8" standalone="no"?> <svg xmlns="http://www.w3.org/2000/svg" viewBox="0 0 48 48"><defs><style>.cls-1{fill:#2d4a60;}.cls-2{fill:#009ae0;}.cls-3{fill:#0081bd;}.cls-4{fill:#fd3730;}.cls-5{fill:#d3241f;}</style></defs><title>Biology</title><g id="_31_-_40" data-name="31 - 40"><g id="Biology"><path class="cls-1" d="M30.41,25.377a1,1,0,0,1-.707-.293L22.916,18.3a1,1,0,1,1,1.414-1.414l6.787,6.787a1,1,0,0,1-.707,1.707Z"/><path class="cls-1" d="M40.967,14.819a1,1,0,0,1-.707-.293L33.473,7.74a1,1,0,1,1,1.414-1.414l6.787,6.786a1,1,0,0,1-.707,1.707Z"/><path class="cls-1" d="M13.82,41.967a1,1,0,0,1-.707-.293L6.326,34.888A1,1,0,1,1,7.74,33.474l6.787,6.786a1,1,0,0,1-.707,1.707Z"/><path class="cls-1" d="M24.377,31.41a.993.993,0,0,1-.707-.293L16.883,24.33A1,1,0,1,1,18.3,22.916L25.084,29.7a1,1,0,0,1-.707,1.707Z"/><path class="cls-1" d="M27.771,28.771a1,1,0,0,1-.708-.293l-7.541-7.541a1,1,0,0,1,1.415-1.415l7.541,7.541a1,1,0,0,1-.707,1.708Z"/><path class="cls-2" d="M47.707,14.621,44.69,11.6a1,1,0,0,0-1.414,0c-2.046,2.046-4.267,2.005-8.8,1.121-.234-.045-.477-.1-.728-.15-1.257-.254-2.5-.5-3.814-.681-3.937-.521-9.062-.512-13.809,4.235S11.372,26,11.9,29.987l.824,4.5c.886,4.524.926,6.745-1.121,8.791a1,1,0,0,0,0,1.414l3.017,3.017a1,1,0,0,0,1.414,0c4-4.005,3.837-8.7,3.141-12.779l-.851-4.449c-.748-4.119-.622-7.063,2.235-9.919s5.8-2.983,9.92-2.234c.438.079.886.169,1.34.26l1.3.256c.6.117,1.207.236,1.825.337,4.063.7,8.756.862,12.76-3.144A1,1,0,0,0,47.707,14.621Z"/><path class="cls-3" d="M12.725,34.485a29.046,29.046,0,0,1,.544,3.8l.385.081c1.314.266,2.609.52,4.015.715.663.088,1.284.146,1.885.186a23.124,23.124,0,0,0-.378-4.338L18.807,33H12.453Z"/><path class="cls-4" d="M.293,33.379,3.31,36.4a1,1,0,0,0,1.414,0c2.046-2.046,4.267-2.005,8.8-1.121.234.045.477.1.728.15,1.257.254,2.495.5,3.814.681,3.937.521,9.062.512,13.809-4.235S36.628,22,36.1,18.013l-.824-4.5c-.886-4.524-.926-6.745,1.121-8.791a1,1,0,0,0,0-1.414L33.379.293a1,1,0,0,0-1.414,0c-4,4.005-3.837,8.7-3.141,12.779l.851,4.449c.748,4.119.622,7.063-2.235,9.919s-5.8,2.983-9.92,2.234c-.438-.079-.886-.169-1.34-.26l-1.3-.256c-.6-.117-1.207-.236-1.825-.337-4.063-.7-8.756-.862-12.76,3.144A1,1,0,0,0,.293,33.379Z"/><path class="cls-5" d="M29.675,17.521a19.927,19.927,0,0,1,.384,3.778c.375.07.758.146,1.182.23l1.3.257c.629.123,1.27.248,1.9.35.647.11,1.256.2,1.841.264a21.8,21.8,0,0,0-.183-4.387l-.284-1.55L29.383,16Z"/><path class="cls-2" d="M38,13.248a31.714,31.714,0,0,1-3.52-.523c-.234-.045-.477-.1-.728-.15-1.257-.254-2.5-.5-3.814-.681A24.127,24.127,0,0,0,27,11.672v6.267a20.975,20.975,0,0,1,3.48.387c.438.079.886.169,1.34.26l1.3.256c.6.117,1.207.236,1.825.337A26.131,26.131,0,0,0,38,19.538Z"/></g></g></svg>