<?xml version="1.0" encoding="UTF-8" standalone="no"?> <svg xmlns="http://www.w3.org/2000/svg" viewBox="0 0 48 48"><defs><style>.cls-1{fill:#eaeff0;}.cls-2{fill:#d9e1e2;}.cls-3{fill:#b8c0c1;}.cls-4{fill:#009ae0;}.cls-5{fill:#0081bd;}</style></defs><title>Chemistry</title><g id="_11_-_20" data-name="11 - 20"><g id="Chemistry"><path class="cls-1" d="M30,6a2,2,0,0,0,2-2h0a2,2,0,0,0-2-2H18a2,2,0,0,0-2,2h0a2,2,0,0,0,2,2V18.965a4,4,0,0,1-.928,2.562L8.683,31.585a8.787,8.787,0,0,0-1.112,9.558h0A8.787,8.787,0,0,0,15.431,46H32.569a8.787,8.787,0,0,0,7.86-4.857h0a8.787,8.787,0,0,0-1.112-9.558L30.928,21.527A4,4,0,0,1,30,18.965Z"/><path class="cls-2" d="M12.571,41.143a8.787,8.787,0,0,1,1.112-9.558l6.663-10.173A4,4,0,0,0,21,19.22V6a2,2,0,0,1,0-4H18.107a2.075,2.075,0,0,0-2.08,1.664A2,2,0,0,0,18,6V18.964a4,4,0,0,1-.928,2.563L8.8,31.441a8.956,8.956,0,0,0-1.994,7.491A8.8,8.8,0,0,0,15.431,46h5A8.787,8.787,0,0,1,12.571,41.143Z"/><path class="cls-2" d="M23,19a1,1,0,0,1-1,1H17.848A3.968,3.968,0,0,0,18,18.964V18h4A1,1,0,0,1,23,19Z"/><path class="cls-2" d="M18,10h4a1,1,0,0,0,0-2H18Z"/><path class="cls-2" d="M18,15h4a1,1,0,0,0,0-2H18Z"/><rect class="cls-3" x="18" y="8" width="3" height="2"/><path class="cls-3" d="M18,18.964A3.968,3.968,0,0,1,17.848,20h3.066A3.99,3.99,0,0,0,21,19.22V18H18Z"/><rect class="cls-3" x="18" y="13" width="3" height="2"/><path class="cls-4" d="M8.683,31.585A8.786,8.786,0,0,0,15.431,46H32.569a8.786,8.786,0,0,0,6.748-14.415L33.825,25H14.175Z"/><path class="cls-5" d="M18.585,25h-4.41L8.8,31.441a8.957,8.957,0,0,0-1.994,7.492A8.8,8.8,0,0,0,15.431,46h5a8.786,8.786,0,0,1-6.748-14.415Z"/><circle class="cls-1" cx="31" cy="38" r="3"/><circle class="cls-1" cx="23" cy="31" r="2"/><circle class="cls-1" cx="16" cy="37" r="2"/></g></g></svg>