<?xml version="1.0" encoding="UTF-8"?>
<!DOCTYPE svg PUBLIC "-//W3C//DTD SVG 1.1//EN" "http://www.w3.org/Graphics/SVG/1.1/DTD/svg11.dtd">
<!-- Creator: CorelDRAW -->
<svg xmlns="http://www.w3.org/2000/svg" xml:space="preserve" width="1.70666in" height="1.70666in" version="1.1" style="shape-rendering:geometricPrecision; text-rendering:geometricPrecision; image-rendering:optimizeQuality; fill-rule:evenodd; clip-rule:evenodd"
viewBox="0 0 1707 1707"
 xmlns:xlink="http://www.w3.org/1999/xlink">
 <defs>
  <style type="text/css">
   <![CDATA[
    .fil0 {fill:#1AA1FF}
    .fil3 {fill:#333333}
    .fil2 {fill:#C06000}
    .fil1 {fill:#E6E6E6}
   ]]>
  </style>
 </defs>
 <g id="Layer_x0020_1">
  <metadata id="CorelCorpID_0Corel-Layer"/>
  <path class="fil0" d="M1388 1706l-1070 0c-57,0 -103,-46 -103,-102l0 -1301c0,-57 46,-103 103,-103l237 0c14,0 26,12 26,27l0 177 545 0 0 -177c0,-15 12,-27 26,-27l237 0c57,0 103,47 103,103l0 1301c0,56 -47,102 -104,102z"/>
  <path class="fil1" d="M1350 1592l-994 0c-15,0 -27,-12 -27,-27l0 -1223c0,-15 12,-27 27,-27l198 0c15,0 27,12 27,27l0 62 544 0 0 -62c0,-15 12,-27 27,-27l198 0c15,0 27,12 27,27l0 1223c0,15 -12,27 -27,27z"/>
  <path class="fil2" d="M1152 457l-598 0c-14,0 -26,-12 -26,-27l0 -264c0,-15 12,-27 26,-27l136 0c5,-34 21,-65 46,-90 32,-32 73,-49 117,-49 82,0 151,60 163,139l136 0c15,0 27,12 27,27l0 264c0,15 -12,27 -27,27z"/>
  <path class="fil1" d="M853 343c-55,0 -100,-44 -100,-100 0,-56 45,-101 100,-101 56,0 101,45 101,101 0,55 -45,100 -101,100z"/>
  <path class="fil0" d="M1032 1509c-122,0 -220,-99 -220,-220 0,-121 98,-220 220,-220 121,0 220,99 220,220 0,121 -99,220 -220,220z"/>
  <path class="fil1" d="M993 1384l0 0c-7,0 -14,-3 -19,-8l-58 -58c-10,-10 -10,-27 0,-37 10,-10 27,-10 37,0l40 39 117 -118c11,-10 28,-10 38,0 10,11 10,28 0,38l-136 136c-6,5 -12,8 -19,8z"/>
  <path class="fil3" d="M1188 587l-670 0c-15,0 -27,-12 -27,-27 0,-14 12,-26 27,-26l671 0c14,0 26,12 26,26 0,15 -12,27 -27,27z"/>
  <path class="fil3" d="M1188 732l-670 0c-15,0 -27,-12 -27,-26 0,-15 12,-27 27,-27l671 0c14,0 26,12 26,27 0,14 -12,26 -27,26z"/>
  <path class="fil3" d="M1188 878l-670 0c-15,0 -27,-12 -27,-26 0,-15 12,-27 27,-27l671 0c14,0 26,12 26,27 0,15 -12,26 -27,26z"/>
  <path class="fil3" d="M1188 1024l-670 0c-15,0 -27,-12 -27,-27 0,-14 12,-26 27,-26l671 0c14,0 26,12 26,26 0,15 -12,27 -27,27z"/>
  <path class="fil3" d="M804 1170l-286 0c-15,0 -27,-12 -27,-27 0,-14 12,-26 27,-26l286 0c15,0 27,12 27,26 0,15 -12,27 -27,27z"/>
  <path class="fil3" d="M738 1316l-220 0c-15,0 -27,-12 -27,-27 0,-14 12,-26 27,-26l220 0c15,0 27,12 27,26 0,15 -12,27 -27,27z"/>
  <path class="fil3" d="M804 1461l-286 0c-15,0 -27,-12 -27,-26 0,-15 12,-27 27,-27l286 0c15,0 27,12 27,27 0,14 -12,26 -27,26z"/>
 </g>
</svg>
