<?xml version="1.0" encoding="UTF-8"?>
<!DOCTYPE svg PUBLIC "-//W3C//DTD SVG 1.1//EN" "http://www.w3.org/Graphics/SVG/1.1/DTD/svg11.dtd">
<!-- Creator: CorelDRAW -->
<svg xmlns="http://www.w3.org/2000/svg" xml:space="preserve" width="512px" height="512px" version="1.1" style="shape-rendering:geometricPrecision; text-rendering:geometricPrecision; image-rendering:optimizeQuality; fill-rule:evenodd; clip-rule:evenodd"
viewBox="0 0 512 512"
 xmlns:xlink="http://www.w3.org/1999/xlink">
 <defs>
  <style type="text/css">
   <![CDATA[
    .fil3 {fill:#FC4549}
    .fil2 {fill:#FFBE00}
    .fil4 {fill:white}
    .fil1 {fill:#4C8421;fill-rule:nonzero}
    .fil0 {fill:#5EAC24;fill-rule:nonzero}
   ]]>
  </style>
 </defs>
 <g id="Layer_x0020_1">
  <metadata id="CorelCorpID_0Corel-Layer"/>
  <g id="_657235192">
   <g>
    <path class="fil0" d="M246 89c51,0 98,21 132,55 33,33 54,80 54,131 0,52 -21,98 -54,132 -34,33 -81,54 -132,54 -51,0 -98,-21 -132,-54 -33,-34 -54,-80 -54,-132 0,-51 21,-98 54,-131 34,-34 81,-55 132,-55z"/>
    <path class="fil1" d="M246 89c22,0 41,22 54,57 12,33 20,79 20,129 0,50 -8,96 -20,129 -13,36 -32,57 -54,57 -22,0 -41,-21 -54,-57 -12,-33 -20,-79 -20,-129 0,-50 8,-96 20,-129 13,-35 32,-57 54,-57zm41 62c-11,-30 -26,-48 -41,-48 -15,0 -30,18 -41,48 -11,32 -19,75 -19,124 0,49 8,93 19,124 11,30 26,48 41,48 15,0 30,-18 41,-48 11,-31 19,-75 19,-124 0,-49 -8,-92 -19,-124z"/>
    <path class="fil1" d="M432 275c0,22 -22,41 -57,54 -33,12 -79,20 -129,20 -50,0 -96,-8 -129,-20 -35,-13 -57,-32 -57,-54 0,-21 22,-40 57,-54 33,-12 79,-20 129,-20 50,0 96,8 129,20 35,14 57,33 57,54zm-62 41c30,-11 48,-26 48,-41 0,-15 -18,-29 -48,-40 -31,-12 -75,-20 -124,-20 -49,0 -93,8 -124,20 -30,11 -48,25 -48,40 0,15 18,30 48,41 31,12 75,19 124,19 49,0 93,-7 124,-19z"/>
   </g>
   <path class="fil2" d="M106 256c-2,0 -3,-1 -4,-2l-32 -25 -50 0c-11,0 -20,-10 -20,-20l0 -138c0,-11 9,-20 20,-20l138 0c11,0 20,9 20,20l0 138c0,10 -9,20 -20,20l-45 0 0 20c0,2 -2,5 -4,6 -1,0 -2,1 -3,1z"/>
   <path class="fil3" d="M406 419c-1,0 -2,-1 -3,-1 -2,-1 -4,-4 -4,-6l0 -20 -45 0c-11,0 -20,-10 -20,-20l0 -138c0,-11 9,-20 20,-20l138 0c11,0 20,9 20,20l0 138c0,10 -9,20 -20,20l-50 0 -32 25c-1,1 -2,2 -4,2z"/>
   <path class="fil4" d="M464 285l-82 0c-4,0 -7,-3 -7,-7 0,-4 3,-7 7,-7l82 0c4,0 7,3 7,7 0,4 -3,7 -7,7z"/>
   <path class="fil4" d="M394 354c-3,0 -5,-2 -6,-4 -2,-3 -1,-8 3,-9 39,-23 48,-64 48,-65 1,-4 4,-6 8,-5 4,1 6,4 6,8 -1,2 -10,48 -56,74 -1,0 -2,1 -3,1z"/>
   <path class="fil4" d="M452 354c-1,0 -2,-1 -3,-1 -46,-26 -56,-72 -56,-74 -1,-4 2,-7 6,-8 3,-1 7,2 8,5l0 0c0,1 9,43 48,65 4,2 5,6 3,9 -1,2 -4,4 -6,4z"/>
   <path class="fil4" d="M423 285c-4,0 -7,-3 -7,-7l0 -23c0,-4 3,-7 7,-7 4,0 7,3 7,7l0 23c0,4 -3,7 -7,7z"/>
   <path class="fil4" d="M125 192c-3,0 -5,-2 -6,-5l-36 -90c-2,-3 0,-7 3,-9 4,-1 8,0 10,4l36 90c1,4 -1,8 -4,9 -1,0 -2,1 -3,1z"/>
   <path class="fil4" d="M53 192c-1,0 -2,-1 -3,-1 -3,-1 -5,-5 -3,-9l36 -90c1,-4 5,-5 9,-4 3,2 5,6 4,9l-36 90c-2,3 -4,5 -7,5z"/>
   <path class="fil4" d="M112 159l-46 0c-4,0 -7,-3 -7,-7 0,-4 3,-7 7,-7l46 0c4,0 7,3 7,7 0,4 -3,7 -7,7z"/>
  </g>
 </g>
</svg>
