<?xml version="1.0" encoding="UTF-8" standalone="no"?> <svg xmlns="http://www.w3.org/2000/svg" xmlns:xlink="http://www.w3.org/1999/xlink" width="1.707" height="1.42" viewBox="0 0 1.707 1.42">
  <defs>
    <linearGradient id="linear-gradient" y1="0.501" x2="1" y2="0.501" gradientUnits="objectBoundingBox">
      <stop offset="0" stop-color="#7959de"/>
      <stop offset="1" stop-color="#006"/>
    </linearGradient>
  </defs>
  <g id="Layer_x0020_1" transform="translate(-0.647 -0.79)">
    <path id="Path_7" data-name="Path 7" d="M.81,1.09h.271a.028.028,0,0,1,.028.028V1.4a.028.028,0,0,1-.028.028H.81A.028.028,0,0,1,.782,1.4v-.28A.028.028,0,0,1,.81,1.09Zm.2.622a.028.028,0,1,0-.04-.04L.945,1.7.916,1.673a.028.028,0,0,0-.04.04l.029.029L.877,1.77a.028.028,0,0,0,.04.04l.029-.029.029.029a.028.028,0,1,0,.04-.04L.985,1.742l.029-.029ZM.907,1.244a.028.028,0,1,0-.04.039L.9,1.318h0a.028.028,0,0,0,.04,0v0l.08-.079A.028.028,0,0,0,.983,1.2l-.062.061L.907,1.244ZM2.2.951H2.3v.39a.028.028,0,0,0,.056,0V.923A.028.028,0,0,0,2.325.895H2.2a.133.133,0,0,0-.13-.1h0a.133.133,0,0,0-.133.133v.272H2.2V.951Zm0,.3V1.9H1.938V1.251Zm-.009.708-.1.234h0a.028.028,0,0,1-.052,0l-.1-.233h.247ZM.81,1.574h.271a.028.028,0,0,1,.028.028v.28a.028.028,0,0,1-.028.028H.81a.028.028,0,0,1-.028-.028V1.6A.028.028,0,0,1,.81,1.574ZM1.7.821H.7A.057.057,0,0,0,.647.879V2.121A.057.057,0,0,0,.7,2.179H1.7a.057.057,0,0,0,.057-.057V.879A.057.057,0,0,0,1.738.84l0,0A.057.057,0,0,0,1.7.821Zm-.471.288H1.59a.028.028,0,0,1,0,.056H1.225a.028.028,0,0,1,0-.056Zm0,.242H1.59a.028.028,0,0,1,0,.056H1.225a.028.028,0,0,1,0-.056Zm0,.242H1.59a.028.028,0,0,1,0,.056H1.225a.028.028,0,0,1,0-.056Zm0,.242H1.59a.028.028,0,0,1,0,.056H1.225a.028.028,0,0,1,0-.056Z" fill-rule="evenodd" fill="url(#linear-gradient)"/>
  </g>
</svg>
