<?xml version="1.0" encoding="UTF-8"?>
<!DOCTYPE svg PUBLIC "-//W3C//DTD SVG 1.1//EN" "http://www.w3.org/Graphics/SVG/1.1/DTD/svg11.dtd">
<!-- Creator: CorelDRAW -->
<svg xmlns="http://www.w3.org/2000/svg" xml:space="preserve" width="2.66666in" height="2.66666in" version="1.1" style="shape-rendering:geometricPrecision; text-rendering:geometricPrecision; image-rendering:optimizeQuality; fill-rule:evenodd; clip-rule:evenodd"
viewBox="0 0 2667 2667"
 xmlns:xlink="http://www.w3.org/1999/xlink">
 <defs>
  <style type="text/css">
   <![CDATA[
    .fil2 {fill:black}
    .fil4 {fill:#1AA1FF}
    .fil1 {fill:#B6AC98}
    .fil0 {fill:#F3F0EA}
    .fil5 {fill:#FF3131}
    .fil6 {fill:#FFA721}
    .fil3 {fill:#FFE4AF}
   ]]>
  </style>
 </defs>
 <rect class="fil0" width="2667" height="2667" rx="500" ry="500"/>
 <g id="Layer_x0020_1">
  <metadata id="CorelCorpID_0Corel-Layer"/>
  <path class="fil1" d="M2213 1562c-8,32 -8,88 0,120 63,23 107,84 107,154 0,91 -74,164 -164,164l-1298 0c-208,0 -378,-169 -378,-378 0,-83 27,-161 74,-225 -44,-30 -74,-81 -74,-138 0,-70 44,-130 107,-154 8,-32 8,-88 0,-120 -63,-24 -107,-84 -107,-154 0,-91 74,-165 164,-165l1298 0c208,0 378,170 378,379 0,82 -27,161 -75,225 45,30 75,80 75,138 0,70 -44,130 -107,154zm-1216 109c0,0 0,0 0,0 -20,-32 -18,-70 0,-99l-139 0c-27,0 -49,23 -49,50 0,27 22,49 49,49l139 0zm806 -577l139 0c27,0 49,-22 49,-49 0,-27 -22,-50 -49,-50l-139 0c0,0 0,1 0,1 20,32 18,70 0,98z"/>
  <path class="fil0" d="M2147 1562c-9,32 -9,88 0,120 62,23 106,84 106,154 0,91 -73,164 -164,164l-1297 0c-209,0 -379,-169 -379,-378 0,-83 27,-161 75,-225 -45,-30 -75,-81 -75,-138 0,-70 44,-130 107,-154 9,-32 9,-88 0,-120 -63,-24 -107,-84 -107,-154 0,-91 74,-165 165,-165l1297 0c209,0 378,170 378,379 0,82 -27,161 -74,225 45,30 74,80 74,138 0,70 -44,130 -106,154zm-1216 109c0,0 0,0 -1,0 -20,-32 -17,-70 1,-99l-139 0c-28,0 -50,23 -50,50 0,27 22,49 50,49l139 0zm805 -577l139 0c27,0 49,-22 49,-49 0,-27 -22,-50 -49,-50l-139 0c0,0 0,1 0,1 21,32 18,70 0,98z"/>
  <path class="fil2" d="M1713 1859c-16,0 -82,-34 -90,-34 -8,0 -66,29 -85,34 -14,3 -29,-8 -29,-23l0 -51 -717 0c-90,0 -163,-73 -163,-163 0,-90 73,-163 163,-163l1296 0c68,0 68,-102 1,-102l-1297 0c-146,0 -265,119 -265,265 0,146 119,265 265,265l1297 0c67,0 67,-102 -1,-102l-352 0c0,29 6,60 -10,71 -4,2 -8,3 -13,3zm-204 -121l0 -93 -503 0c-31,0 -31,-47 0,-47l1022 0c2,-33 8,-66 19,-92l-1255 0c-64,0 -116,52 -116,116 0,64 52,116 116,116l717 0zm591 -233c-36,49 -36,184 0,234 49,5 87,47 87,97 0,54 -44,98 -98,98l-1297 0c-172,0 -312,-140 -312,-312 0,-112 59,-210 148,-265l-50 0c-54,0 -98,-44 -98,-98 0,-50 38,-92 86,-97 36,-50 36,-184 0,-234 -48,-6 -86,-47 -86,-97 0,-54 44,-98 98,-98l1297 0c172,0 312,140 312,312 0,112 -60,210 -148,265l50 0c54,0 98,44 98,98 0,50 -38,91 -87,97zm-53 233c-11,-26 -17,-59 -19,-93l-292 0 0 93 311 0zm-1428 -577l497 0 0 -93 -477 0c-2,34 -9,67 -20,93zm543 64c81,-33 54,-33 134,0l0 -157 -134 0 0 157zm181 -64l532 0c64,0 116,-52 116,-116 0,-64 -52,-116 -116,-116l-1256 0c11,26 18,59 20,93l1022 0c30,0 30,46 0,46l-318 0 0 93zm-765 47c-67,0 -67,102 0,102l1297 0c146,0 265,-119 265,-265 0,-146 -119,-265 -265,-265l-1297 0c-67,0 -67,102 0,102l1297 0c90,0 163,73 163,163 0,90 -73,163 -163,163l-532 0c0,30 5,60 -11,71 -6,4 -14,5 -22,2l-81 -33 -81 33c-17,7 -32,-7 -32,-22l0 -51 -538 0zm1045 568c11,0 54,20 67,25l0 -156 -134 0 0 156 58 -23c3,-1 6,-2 9,-2z"/>
  <path class="fil2" d="M1713 1859c-16,0 -82,-34 -90,-34 -8,0 -66,29 -85,34 -14,3 -29,-8 -29,-23l0 -51 -717 0c-90,0 -163,-73 -163,-163 0,-90 73,-163 163,-163l1296 0c68,0 68,-102 1,-102l-1297 0c-146,0 -265,119 -265,265 0,146 119,265 265,265l1297 0c67,0 67,-102 -1,-102l-352 0c0,29 6,60 -10,71 -4,2 -8,3 -13,3zm-204 -121l0 -93 -503 0c-31,0 -31,-47 0,-47l1022 0c2,-33 8,-66 19,-92l-1255 0c-64,0 -116,52 -116,116 0,64 52,116 116,116l717 0zm591 -233c-36,49 -36,184 0,234 49,5 87,47 87,97 0,54 -44,98 -98,98l-1297 0c-172,0 -312,-140 -312,-312 0,-112 59,-210 148,-265l-50 0c-54,0 -98,-44 -98,-98 0,-50 38,-92 86,-97 36,-50 36,-184 0,-234 -48,-6 -86,-47 -86,-97 0,-54 44,-98 98,-98l1297 0c172,0 312,140 312,312 0,112 -60,210 -148,265l50 0c54,0 98,44 98,98 0,50 -38,91 -87,97zm-53 233c-11,-26 -17,-59 -19,-93l-292 0 0 93 311 0zm-1428 -577l497 0 0 -93 -477 0c-2,34 -9,67 -20,93zm543 64c81,-33 54,-33 134,0l0 -157 -134 0 0 157zm181 -64l532 0c64,0 116,-52 116,-116 0,-64 -52,-116 -116,-116l-1256 0c11,26 18,59 20,93l1022 0c30,0 30,46 0,46l-318 0 0 93zm-765 47c-67,0 -67,102 0,102l1297 0c146,0 265,-119 265,-265 0,-146 -119,-265 -265,-265l-1297 0c-67,0 -67,102 0,102l1297 0c90,0 163,73 163,163 0,90 -73,163 -163,163l-532 0c0,30 5,60 -11,71 -6,4 -14,5 -22,2l-81 -33 -81 33c-17,7 -32,-7 -32,-22l0 -51 -538 0zm1045 568c11,0 54,20 67,25l0 -156 -134 0 0 156 58 -23c3,-1 6,-2 9,-2z"/>
  <path class="fil3" d="M1343 1161l532 0c64,0 116,-52 116,-116 0,-64 -52,-116 -116,-116l-1256 0c11,26 18,59 20,93l1022 0c30,0 30,46 0,46l-318 0 0 93z"/>
  <path class="fil4" d="M578 882l1297 0c90,0 163,73 163,163 0,90 -73,163 -163,163l-532 0c0,30 5,60 -11,71 -6,4 -14,5 -22,2l-81 -33 -81 33c-17,7 -32,-7 -32,-22l0 -51 -538 0c-67,0 -67,102 0,102l1297 0c146,0 265,-119 265,-265 0,-146 -119,-265 -265,-265l-1297 0c-67,0 -67,102 0,102z"/>
  <path class="fil5" d="M1296 1068l-134 0 0 157c81,-33 54,-33 134,0l0 -157z"/>
  <path class="fil3" d="M1116 1161l0 -93 -477 0c-2,34 -9,67 -20,93l497 0z"/>
  <path class="fil3" d="M2047 1506l-1255 0c-64,0 -116,52 -116,116 0,64 52,116 116,116l717 0 0 -93 -503 0c-31,0 -31,-47 0,-47l1022 0c2,-33 8,-66 19,-92z"/>
  <path class="fil6" d="M792 1459l1296 0c68,0 68,-102 1,-102l-1297 0c-146,0 -265,119 -265,265 0,146 119,265 265,265l1297 0c67,0 67,-102 -1,-102l-352 0c0,29 6,60 -10,71 -4,2 -8,3 -13,3 -16,0 -82,-34 -90,-34 -8,0 -66,29 -85,34 -14,3 -29,-8 -29,-23l0 -51 -717 0c-90,0 -163,-73 -163,-163 0,-90 73,-163 163,-163z"/>
  <path class="fil5" d="M1556 1645l0 156 58 -23c3,-1 6,-2 9,-2 11,0 54,20 67,25l0 -156 -134 0z"/>
  <path class="fil3" d="M1736 1645l0 93 311 0c-11,-26 -17,-59 -19,-93l-292 0z"/>
 </g>
</svg>
