<?xml version="1.0" encoding="UTF-8" standalone="no"?><svg width="256" height="256" version="1.1" viewBox="-29.042 -23.6639 256 256" xmlns="http://www.w3.org/2000/svg" xmlns:xlink="http://www.w3.org/1999/xlink"><!--Generated by IJSVG (https://github.com/curthard89/IJSVG)--><g transform="scale(1.07563)"><path fill="#4A5863" d="M189.968,176.01c-1.036,7.394 -8.173,14.541 -15.643,15.664c-54.884,8.004 -109.767,8.004 -164.65,0c-7.47,-1.123 -14.607,-8.271 -15.644,-15.664c-7.381,-54.34 -6.837,-108.68 1.63,-163.02c1.19,-7.393 8.327,-14.52 15.644,-15.622c53.796,-7.845 107.593,-7.845 161.389,0c7.317,1.102 14.454,8.229 15.644,15.622c8.468,54.34 9.011,108.68 1.63,163.02Z"></path><path fill="#93AEC4" d="M82.293,73.254c-0.021,6.536 -5.376,11.89 -11.909,11.905c-16.622,0.047 -33.244,0.149 -49.866,0.305c-6.532,0.044 -11.785,-4.974 -11.559,-11.158c0.561,-15.791 1.633,-31.581 3.216,-47.37c0.639,-6.183 6.277,-11.812 12.415,-12.395c15.675,-1.445 31.35,-2.387 47.025,-2.824c6.138,-0.177 11.108,5.116 11.054,11.648c-0.185,16.627 -0.31,33.257 -0.376,49.889v0Z"></path><path fill="#FFF" d="M22.736,44.696c15.468,-0.848 30.936,-1.412 46.403,-1.692c-0.065,3.243 -0.125,6.486 -0.179,9.729c-15.589,0.227 -31.177,0.683 -46.766,1.37c0.164,-3.136 0.345,-6.271 0.542,-9.407Z"></path><path fill="#FFF" d="M42.146,25.309c3.117,-0.175 6.234,-0.333 9.351,-0.475c-0.759,15.637 -1.282,31.277 -1.571,46.92c-3.238,0.045 -6.476,0.097 -9.713,0.153c0.355,-15.535 0.999,-31.067 1.933,-46.598Z"></path><path fill="#93AEC4" d="M173.591,74.27c0.223,6.197 -5.032,11.225 -11.563,11.182c-16.622,-0.153 -33.243,-0.252 -49.865,-0.296c-6.531,-0.015 -11.885,-5.369 -11.903,-11.905c-0.056,-16.636 -0.163,-33.269 -0.32,-49.898c-0.043,-6.533 4.938,-11.836 11.074,-11.671c15.675,0.408 31.35,1.319 47.024,2.735c6.137,0.572 11.765,6.201 12.393,12.395c1.555,15.817 2.609,31.637 3.16,47.458v0Z"></path><path fill="#FFF" d="M117.511,43.646c12.768,0.254 25.536,0.7 38.304,1.337c0.18,3.154 0.344,6.308 0.493,9.462c-12.867,-0.514 -25.733,-0.874 -38.6,-1.08c-0.06,-3.24 -0.126,-6.48 -0.197,-9.719Z"></path><path fill="#93AEC4" d="M83.693,165.243c0.038,6.541 -5.032,11.848 -11.275,11.679c-15.933,-0.42 -31.865,-1.35 -47.797,-2.792c-6.241,-0.582 -11.872,-6.22 -12.399,-12.416c-1.306,-15.819 -2.107,-31.638 -2.404,-47.454c-0.12,-6.195 5.227,-11.218 11.767,-11.171c16.65,0.163 33.301,0.268 49.951,0.314c6.542,0.016 11.897,5.371 11.908,11.908c0.03,16.641 0.114,33.285 0.249,49.932Z"></path><path fill="#FFF" d="M33.352,119.355c11.372,11.179 22.798,22.615 34,34.027c-2.211,2.242 -4.406,4.473 -6.584,6.687c-11.235,-11.484 -22.713,-22.975 -34.156,-34.188c2.233,-2.156 4.481,-4.333 6.74,-6.526Z"></path><path fill="#FFF" d="M60.009,119.833c2.319,2.315 4.637,4.635 6.952,6.956c-11.049,11.023 -21.881,21.817 -32.217,32.097c-2.363,-2.379 -4.732,-4.751 -7.107,-7.115c10.407,-10.209 21.291,-20.948 32.372,-31.938Z"></path><path fill="#FF7F00" d="M172.669,161.634c-0.533,6.188 -6.17,11.827 -12.41,12.416c-15.933,1.461 -31.865,2.41 -47.798,2.848c-6.24,0.177 -11.305,-5.123 -11.261,-11.663c0.15,-16.646 0.243,-33.287 0.277,-49.925c0.012,-6.538 5.367,-11.892 11.907,-11.909c16.65,-0.049 33.301,-0.156 49.951,-0.321c6.539,-0.047 11.886,4.968 11.765,11.156c-0.3,15.798 -1.111,31.597 -2.431,47.398Z"></path><path fill="#FFF" d="M119.227,123.356c13.033,-0.156 26.065,-0.423 39.099,-0.803c-0.073,3.152 -0.162,6.304 -0.267,9.455c-12.98,0.505 -25.961,0.861 -38.941,1.068c0.042,-3.239 0.079,-6.479 0.109,-9.72Z"></path><path fill="#FFF" d="M118.894,147.013c12.873,-0.281 25.746,-0.765 38.619,-1.45c-0.149,3.152 -0.314,6.304 -0.494,9.456c-12.776,0.812 -25.552,1.384 -38.328,1.717c0.074,-3.241 0.141,-6.482 0.203,-9.723Z"></path></g></svg>