<?xml version="1.0" encoding="UTF-8"?>
<!DOCTYPE svg PUBLIC "-//W3C//DTD SVG 1.1//EN" "http://www.w3.org/Graphics/SVG/1.1/DTD/svg11.dtd">
<!-- Creator: CorelDRAW -->
<svg xmlns="http://www.w3.org/2000/svg" xml:space="preserve" width="1.70666in" height="1.70666in" version="1.1" style="shape-rendering:geometricPrecision; text-rendering:geometricPrecision; image-rendering:optimizeQuality; fill-rule:evenodd; clip-rule:evenodd"
viewBox="0 0 1706.66 1706.66"
 xmlns:xlink="http://www.w3.org/1999/xlink"
 xmlns:xodm="http://www.corel.com/coreldraw/odm/2003">
 <defs>
  <style type="text/css">
   <![CDATA[
    .fil0 {fill:black}
    .fil1 {fill:#FFC3A1}
   ]]>
  </style>
 </defs>
 <g id="Layer_x0020_1">
  <metadata id="CorelCorpID_0Corel-Layer"/>
  <path class="fil0" d="M254.3 1582.41c-52.67,0 -72.72,-27.08 -68.42,-75.14l0 -296.9c-4.65,-23.91 -185.88,-400.83 -185.88,-514.06 0,-315.44 256.63,-572.07 572.07,-572.07 622.02,0 367.37,503.25 564.6,774.46 33.83,46.52 13.27,57.74 -47.67,92.98 -2.36,1.38 -4.97,2.25 -7.71,2.57 0.04,0 -5.2,2.22 -11.74,17.92 -23.85,57.39 -24.3,197.44 -0.8,241.68 6.26,11.8 8.74,44.76 -8.99,69.43 -29.93,41.61 -102.69,52.09 -217.09,30.88 -56.15,-10.94 -88.71,80.5 -83.79,206.41 0.44,11.32 -8.65,20.79 -19.98,20.79l-484.61 1.07zm317.76 -1418.15c-293.38,0 -532.07,238.69 -532.07,532.07 0,102.98 185.89,488.74 185.89,510.17l-0.39 306.57c-7.34,36.35 25.95,28.25 43.63,28.25l449.22 0.01c-1.5,-112.61 27.43,-227.7 118.41,-227.7 28.59,0 156.14,32.89 190.31,-13.39 8.71,-11.81 6.32,-25.59 5.33,-29.68 -29.79,-59.9 -27.2,-222.54 4.97,-283.92 17.83,-34.02 38.83,-28.47 73.48,-55.19 -13.73,-20.67 -24.46,-31.2 -42.12,-67.44 -144.69,-296.96 50.85,-699.74 -496.66,-699.74z"/>
  <path class="fil0" d="M1597.72 1554.97c-15.77,0 -25.52,-17.66 -16.67,-31.04 156.83,-237.08 92.4,-558.13 -146.26,-715.96 -21.98,-14.54 0.11,-47.9 22.05,-33.37 257.54,170.52 326.46,516.99 157.59,771.41 -3.86,5.8 -10.22,8.97 -16.71,8.97z"/>
  <path class="fil0" d="M1435.44 1447.74c-15.75,0 -25.52,-17.64 -16.67,-31.02 97.9,-147.98 57.36,-348.34 -91.21,-446.47 -21.98,-14.52 0.12,-47.91 22.06,-33.36 167.68,111.18 212.37,336.53 102.53,501.9 -3.86,5.78 -10.22,8.95 -16.7,8.95z"/>
  <path class="fil0" d="M1273.2 1340.53c-15.75,0 -25.52,-17.65 -16.67,-31.02 38.73,-58.53 22.78,-138.04 -36.2,-177.04 -21.97,-14.52 0.11,-47.9 22.06,-33.36 120.2,79.66 68.36,241.42 30.81,241.42z"/>
  <path class="fil1" d="M1032.38 1270.56c-29.79,-59.9 -27.2,-222.54 4.97,-283.92 17.83,-34.02 38.83,-28.47 73.48,-55.19 -13.73,-20.67 -24.46,-31.2 -42.12,-67.44 -144.69,-296.96 50.85,-699.74 -496.66,-699.74 -293.38,0 -532.07,238.69 -532.07,532.07 0,102.98 185.89,488.74 185.89,510.17l-0.39 306.57c-7.34,36.35 25.95,28.25 43.63,28.25l449.22 0.01c-1.5,-112.61 27.43,-227.7 118.41,-227.7 28.59,0 156.14,32.89 190.31,-13.39 8.71,-11.81 6.32,-25.59 5.33,-29.68z"/>
 </g>
</svg>
