<svg width="15" height="15" viewBox="0 0 15 15" fill="none" xmlns="http://www.w3.org/2000/svg">
<g clip-path="url(#clip0_1_824)">
<path d="M7.14 14.28C5.72784 14.28 4.3474 13.8612 3.17323 13.0767C1.99906 12.2921 1.08391 11.177 0.543503 9.87236C0.00309366 8.56769 -0.138302 7.13208 0.137196 5.74705C0.412695 4.36203 1.09271 3.0898 2.09126 2.09125C3.08981 1.09271 4.36203 0.412689 5.74706 0.137191C7.13208 -0.138308 8.5677 0.00308794 9.87236 0.543498C11.177 1.08391 12.2921 1.99906 13.0767 3.17323C13.8612 4.34739 14.28 5.72784 14.28 7.14C14.278 9.03301 13.5251 10.8479 12.1865 12.1865C10.8479 13.525 9.03302 14.2779 7.14 14.28ZM7.14 1.19C5.9632 1.19 4.81283 1.53896 3.83436 2.19275C2.85589 2.84655 2.09326 3.77581 1.64292 4.86303C1.19258 5.95025 1.07475 7.1466 1.30433 8.30078C1.53391 9.45497 2.1006 10.5152 2.93272 11.3473C3.76484 12.1794 4.82503 12.7461 5.97922 12.9757C7.1334 13.2053 8.32975 13.0874 9.41697 12.6371C10.5042 12.1867 11.4335 11.4241 12.0872 10.4456C12.741 9.46717 13.09 8.3168 13.09 7.14C13.0883 5.56249 12.4608 4.05009 11.3454 2.93463C10.2299 1.81916 8.71751 1.19173 7.14 1.19Z" fill="#3D8FEF"/>
<path d="M4.72846 9.28081L4.09717 8.27169L6.545 6.73837V3.57H7.735V7.39763L4.72846 9.28081Z" fill="#3D8FEF"/>
</g>
<defs>
<clipPath id="clip0_1_824">
<rect width="14.28" height="14.28" fill="white"/>
</clipPath>
</defs>
</svg>
