<?xml version="1.0" encoding="UTF-8" standalone="no"?> <svg id="Flat" xmlns="http://www.w3.org/2000/svg" viewBox="0 0 64 64"><path d="M21.961,41H42.035A6.963,6.963,0,0,1,49,47.963V61a0,0,0,0,1,0,0H15a0,0,0,0,1,0,0V47.963A6.963,6.963,0,0,1,21.961,41Z" style="fill:#9aa099"/><path d="M22,41h0a16.181,16.181,0,0,0,8.944,14.472L32,56l1.056-.528A16.181,16.181,0,0,0,42,41H22Z" style="fill:#f8f8f8"/><path d="M53,36h0a17.073,17.073,0,0,1-12.071,5H23.069A17.073,17.073,0,0,1,11,36h0a13.658,13.658,0,0,0,4-9.657V20A17,17,0,0,1,32,3h0A17,17,0,0,1,49,20v6.343A13.658,13.658,0,0,0,53,36Z" style="fill:#595a6e"/><rect x="27.998" y="36" width="8" height="10" style="fill:#e8d8bf"/><path d="M35.97,38H28.026A9.028,9.028,0,0,1,19,28.972V18h0a13.209,13.209,0,0,1,7.328,2.219l2.344,1.562A13.209,13.209,0,0,0,36,24h.341a13.211,13.211,0,0,0,6.8-1.883L45,21v7.972A9.028,9.028,0,0,1,35.97,38Z" style="fill:#e8d8bf"/><rect x="40.927" y="49" width="14.142" height="2" transform="translate(-21.297 48.584) rotate(-45)" style="fill:#1d3f54"/><path d="M18,52a1,1,0,0,1-.759-.349l-6-7,1.518-1.3L18,49.463l5.241-6.114,1.518,1.3-6,7A1,1,0,0,1,18,52Z" style="fill:#ccdaec"/><rect x="31" y="50" width="2" height="2" style="fill:#d8a29e"/><rect x="42.998" y="55" width="6" height="6" style="fill:#e8d8bf"/><polygon points="31.998 46 26.998 49 24.998 41 27.998 41 31.998 46" style="fill:#d8a29e"/><polygon points="31.998 46 36.998 49 38.998 41 35.998 41 31.998 46" style="fill:#d8a29e"/><polygon points="8.998 47 8.998 55 17.998 59 26.998 55 26.998 47 17.998 51 8.998 47" style="fill:#4d8ebe"/><rect x="14.998" y="55" width="6" height="6" style="fill:#e8d8bf"/></svg>